<svg height="511pt" viewBox="0 -23 511.99954 511" width="511pt" xmlns="http://www.w3.org/2000/svg"><path d="m503.074219 365.632812-188.570313-331.125c-12.128906-21.296874-34-34.007812-58.503906-34.007812s-46.375 12.710938-58.503906 34.007812l-188.570313 331.125c-12.003906 21.078126-11.894531 46.179688.296875 67.148438 12.1875 20.96875 33.945313 33.488281 58.203125 33.488281h377.148438c24.253906 0 46.015625-12.519531 58.203125-33.488281 12.191406-20.96875 12.300781-46.074219.296875-67.148438zm0 0" fill="#ff1f3e"/><path d="m503.074219 365.632812-188.570313-331.125c-12.128906-21.292968-33.996094-34.007812-58.5-34.007812v465.769531h188.570313c24.253906 0 46.011719-12.519531 58.203125-33.488281s12.300781-46.074219.296875-67.148438zm0 0" fill="#bf0000"/><path d="m104.90625 396.660156h302.183594c14.582031 0 23.730468-15.742187 16.515625-28.410156l-151.09375-265.308594c-7.289063-12.800781-25.738281-12.800781-33.027344 0l-151.089844 265.308594c-7.214843 12.667969 1.933594 28.410156 16.511719 28.410156zm0 0" fill="#f3eee9"/><path d="m423.605469 368.25-151.09375-265.308594c-3.640625-6.398437-10.074219-9.597656-16.507813-9.597656v303.316406h151.085938c14.582031 0 23.730468-15.742187 16.515625-28.410156zm0 0" fill="#e9dfda"/><path d="m256 245.140625-66.941406 67.449219-42.007813-47.34375-58.65625 103.003906c-7.214843 12.667969 1.933594 28.410156 16.511719 28.410156h237.011719zm0 0" fill="#99503d"/><path d="m256.003906 245.144531v151.515625h85.914063zm0 0" fill="#804231"/><path d="m189.058594 312.589844 66.941406-67.449219-48.644531-85.78125-60.304688 105.890625zm0 0" fill="#dad0cb"/><path d="m407.089844 411.691406h-302.183594c-12.261719 0-23.261719-6.332031-29.425781-16.933594-6.160157-10.601562-6.21875-23.292968-.148438-33.949218l151.089844-265.308594c6.128906-10.765625 17.1875-17.191406 29.578125-17.191406 12.386719 0 23.445312 6.425781 29.574219 17.191406l151.09375 265.308594c6.066406 10.65625 6.011719 23.347656-.152344 33.949218-6.164063 10.601563-17.160156 16.933594-29.425781 16.933594zm-151.089844-303.316406c-1.054688 0-2.507812.347656-3.453125 2.003906l-151.089844 265.308594c-.9375 1.640625-.507812 3.0625.015625 3.960938.523438.902343 1.546875 1.976562 3.433594 1.976562h302.183594c1.890625 0 2.910156-1.074219 3.433594-1.976562.527343-.898438.953124-2.320313.019531-3.960938l-151.089844-265.308594c-.945313-1.65625-2.398437-2.003906-3.453125-2.003906zm0 0" fill="#ff9d22"/><path d="m436.667969 360.808594-151.089844-265.304688c-6.132813-10.765625-17.1875-17.195312-29.574219-17.195312v30.066406c1.050782 0 2.503906.347656 3.449219 2.003906l151.089844 265.308594c.933593 1.640625.507812 3.0625-.019531 3.960938-.523438.902343-1.542969 1.976562-3.433594 1.976562h-151.085938v30.0625h151.085938c12.265625 0 23.265625-6.328125 29.425781-16.929688 6.164063-10.601562 6.222656-23.292968.152344-33.949218zm0 0" fill="#ff7037"/><g fill="#99503d"><path d="m263.625 217.65625 26.195312-14.753906 14.40625 25.574218-26.195312 14.753907zm0 0"/><path d="m292.4375 268.808594 26.195312-14.757813 14.40625 25.578125-26.195312 14.753906zm0 0"/><path d="m321.25 319.96875 26.195312-14.757812 14.40625 25.578124-26.195312 14.753907zm0 0"/></g><path d="m263.625 217.65625 26.195312-14.753906 14.40625 25.574218-26.195312 14.753907zm0 0" fill="#804231"/><path d="m292.4375 268.808594 26.195312-14.757813 14.40625 25.578125-26.195312 14.753906zm0 0" fill="#804231"/><path d="m321.25 319.96875 26.195312-14.757812 14.40625 25.578124-26.195312 14.753907zm0 0" fill="#804231"/></svg>