<?xml version="1.0"?>
<svg xmlns="http://www.w3.org/2000/svg" xmlns:xlink="http://www.w3.org/1999/xlink" version="1.1" id="Capa_1" x="0px" y="0px" viewBox="0 0 512 512" style="enable-background:new 0 0 512 512;" xml:space="preserve" width="512px" height="512px" class=""><g><path style="fill:#00E676" d="M256,0C154.535,0,71.987,82.548,71.987,184.013c0,32.171,9.494,69.412,28.217,110.688  c14.801,32.63,35.401,67.927,61.231,104.908c43.848,62.782,88.339,109.493,88.783,109.957c3.106,3.246,8.457,3.246,11.564,0  c0.444-0.464,44.936-47.174,88.783-109.957c25.829-36.982,46.43-72.278,61.231-104.908c18.723-41.276,28.217-78.517,28.217-110.688  C440.013,82.548,357.465,0,256,0z" data-original="#FF75AF" class="" data-old_color="#FF75AF"/><path style="fill:#00C853" d="M193.437,391.644c-25.829-36.982-46.43-72.278-61.231-104.908  c-18.723-41.276-28.217-78.517-28.217-110.688c0-80.39,51.822-148.893,123.81-173.888C139.673,15.771,71.987,92.135,71.987,184.013  c0,32.171,9.494,69.412,28.217,110.688c14.801,32.63,35.401,67.927,61.231,104.908c43.848,62.782,88.339,109.493,88.783,109.957  c3.106,3.246,8.457,3.246,11.564,0c0.15-0.157,5.326-5.592,13.8-15.132C261.533,479.014,227.296,440.124,193.437,391.644z" data-original="#FF599E" class="" data-old_color="#FF599E"/><path style="fill:#69F0AE" d="M256,48.003c-74.995,0-136.01,61.013-136.01,136.01s61.014,136.01,136.01,136.01  s136.01-61.013,136.01-136.01S330.995,48.003,256,48.003z" data-original="#FFA8CC" class="active-path" data-old_color="#FFA8CC"/><path style="fill:#FFFFFF" d="M171.942,197.053l25.279-18.959c1.592-1.194,3.821-1.036,5.228,0.372l26.72,26.72  c1.562,1.562,4.095,1.562,5.657,0l81.916-81.916c1.721-1.721,4.568-1.519,6.028,0.428l19.073,25.432  c1.228,1.638,1.022,3.938-0.478,5.331l-106.727,99.103c-1.501,1.394-3.814,1.428-5.356,0.079l-57.577-50.38  C169.795,201.589,169.908,198.579,171.942,197.053z" data-original="#FFFFFF" class="" data-old_color="#FFFFFF"/></g> </svg>
